Coordinates
version=1
nRows=9
nColumns=38
inDegrees=yes

Units are S.I. units (second, meters, Newtons, ...)
Angles are in degrees.

endheader
time	pelvis_tilt	pelvis_list	pelvis_rotation	pelvis_tx	pelvis_ty	pelvis_tz	hip_flexion_r	hip_adduction_r	hip_rotation_r	knee_angle_r	ankle_angle_r	subtalar_angle_r	mtp_angle_r	hip_flexion_l	hip_adduction_l	hip_rotation_l	knee_angle_l	ankle_angle_l	subtalar_angle_l	mtp_angle_l	lumbar_extension	lumbar_bending	lumbar_rotation	arm_flex_r	arm_add_r	arm_rot_r	elbow_flex_r	pro_sup_r	wrist_flex_r	wrist_dev_r	arm_flex_l	arm_add_l	arm_rot_l	elbow_flex_l	pro_sup_l	wrist_flex_l	wrist_dev_l
      1.20000000	     -0.16797388	     -1.36596686	      3.87068945	     -0.94869471	      0.92828856	     -0.19610940	     -0.25902519	      6.12854804	     -7.00685919	    -14.44485101	      9.70744371	      0.59166590	      1.25938497	     25.93928195	      1.90296048	      5.03132608	    -46.46670539	      0.23819661	     -4.82004840	     10.46657342	     -7.83966382	      4.90839875	      0.57008370	     -4.02008273	    -22.19004614	      6.47356496	     33.85688795	     86.51662706	      0.00000000	      0.00000000	     -4.37662888	    -15.12787892	     12.95259175	     27.60394093	     86.51662706	      0.00000000	      0.00000000
      1.21000000	      0.17986080	     -1.13494871	      3.67355537	     -0.93717025	      0.92778622	     -0.19587203	     -1.90973541	      5.99272634	     -6.70890342	    -13.60229113	     10.00724706	      0.81203982	      1.27124772	     25.93797920	      2.06587692	      4.84982580	    -43.25152762	      0.03588479	     -6.25146342	     10.42727178	     -8.44344683	      4.64473455	      0.91601717	     -3.55642829	    -22.44760853	      6.98123373	     34.07931728	     86.51662706	      0.00000000	      0.00000000	     -4.26524812	    -15.04407010	     12.61557720	     27.33636916	     86.51662706	      0.00000000	      0.00000000
      1.22000000	      0.39133249	     -1.01480942	      3.59352886	     -0.92554111	      0.92682993	     -0.19576672	     -3.35354234	      5.97324361	     -6.50084387	    -12.88796340	     10.36558252	      0.94753231	      1.33271530	     26.06580882	      2.15074739	      4.82112659	    -40.03030649	     -0.03853807	     -7.19345281	     10.19257339	     -8.83596757	      4.50473177	      1.15252863	     -3.18811332	    -22.64423749	      7.24290467	     34.26817080	     86.51662706	      0.00000000	      0.00000000	     -4.21735312	    -14.97778743	     12.44609476	     27.14448312	     86.51662706	      0.00000000	      0.00000000
      1.23000000	      0.49934965	     -0.97744266	      3.59562483	     -0.91384396	      0.92550620	     -0.19575778	     -4.62546388	      6.03886666	     -6.36564438	    -12.29454627	     10.76665025	      1.01572125	      1.43480355	     26.27894629	      2.17489216	      4.89911925	    -36.79937216	      0.01140112	     -7.70051706	      9.80325445	     -9.07029667	      4.45436400	      1.30778414	     -2.89419995	    -22.79354005	      7.31512266	     34.43261736	     86.51662706	      0.00000000	      0.00000000	     -4.21102113	    -14.92382671	     12.41162925	     26.99930461	     86.51662706	      0.00000000	      0.00000000
      1.24000000	      0.54010118	     -0.99155823	      3.64018261	     -0.90209349	      0.92389871	     -0.19580200	     -5.76272152	      6.15549423	     -6.28275715	    -11.81618817	     11.19255162	      1.03874362	      1.56654707	     26.52826708	      2.15552353	      5.02735216	    -33.56367461	      0.17728099	     -7.82484702	      9.31438720	     -9.20348787	      4.45646115	      1.41424717	     -2.65128832	    -22.91097747	      7.26566741	     34.58168315	     86.51662706	      0.00000000	      0.00000000	     -4.22219927	    -14.87600994	     12.47377639	     26.86715006	     86.51662706	      0.00000000	      0.00000000
      1.25000000	      0.54379124	     -1.03045712	      3.69266238	     -0.89028311	      0.92206889	     -0.19587101	     -6.79678563	      6.29382922	     -6.23184558	    -11.45083631	     11.62711709	      1.03992066	      1.71714428	     26.77155847	      2.10453555	      5.15015200	    -30.34243527	      0.44408205	     -7.60265002	      8.78638402	     -9.28202217	      4.48064147	      1.50101944	     -2.43923859	    -23.01020659	      7.15924589	     34.72128757	     86.51662706	      0.00000000	      0.00000000	     -4.23100585	    -14.82834192	     12.59647483	     26.71757885	     86.51662706	      0.00000000	      0.00000000
      1.26000000	      0.53080216	     -1.07650585	      3.72847360	     -0.87839651	      0.92007625	     -0.19595838	     -7.75103580	      6.43214086	     -6.19512473	    -11.20014299	     12.05704861	      1.04189810	      1.87736629	     26.98100282	      2.02757834	      5.21948274	    -27.17127494	      0.79041918	     -7.05411705	      8.27706580	     -9.33603664	      4.50824374	      1.58949913	     -2.24403973	    -23.10133824	      7.04846770	     34.85316534	     86.51662706	      0.00000000	      0.00000000	     -4.22471254	    -14.77552095	     12.75082315	     26.52832179	     86.51662706	      0.00000000	      0.00000000
      1.27000000	      0.51236170	     -1.12269383	      3.73346376	     -0.86641924	      0.91800256	     -0.19606385	     -8.64113527	      6.55634768	     -6.15883319	    -11.06769880	     12.47097423	      1.06572837	      2.04051683	     27.14602806	      1.92706203	      5.19854420	    -24.10173229	      1.19098583	     -6.19277985	      7.83534413	     -9.38021495	      4.53269274	      1.69196319	     -2.05847396	    -23.19068436	      6.96940151	     34.97532109	     86.51662706	      0.00000000	      0.00000000	     -4.19800467	    -14.71301976	     12.91706044	     26.28754102	     86.51662706	      0.00000000	      0.00000000
      1.28000000	      0.49357635	     -1.17066663	      3.70192717	     -0.85434049	      0.91592881	     -0.19618762	     -9.47615304	      6.65900883	     -6.11383405	    -11.05664393	     12.85757496	      1.13034352	      2.20331460	     27.27121657	      1.80649127	      5.06398292	    -21.19949956	      1.62025185	     -5.03917593	      7.49691819	     -9.41856264	      4.55634327	      1.81247045	     -1.88143566	    -23.28125922	      6.94084047	     35.08344336	     86.51662706	      0.00000000	      0.00000000	     -4.15156145	    -14.63709665	     13.08443921	     25.99389449	     86.51662706	      0.00000000	      0.00000000
